<?xml version="1.0" encoding="utf-8"?>
<!-- Generator: Adobe Illustrator 23.1.1, SVG Export Plug-In . SVG Version: 6.00 Build 0)  -->
<svg version="1.1" id="Layer_1" xmlns="http://www.w3.org/2000/svg" xmlns:xlink="http://www.w3.org/1999/xlink" x="0px" y="0px"
	 viewBox="0 0 128.3 64" style="enable-background:new 0 0 128.3 64;" xml:space="preserve">
<style type="text/css">
	.st0{fill:#020202;}
</style>
<title>Asset 5</title>
<path class="st0" d="M9.9,14.8h12.4c10.1,0,15.2,5.8,15.2,17.8s-5.1,17.8-15.2,17.8H9.9V14.8z M21.8,43.2c5.2,0,6.8-3.8,6.8-10.6
	S27,22,21.8,22h-3.4v21.2H21.8z"/>
<path class="st0" d="M43.4,14.8h8.4v35.6h-8.4V14.8z"/>
<path class="st0" d="M59.6,14.8h12.9C81,14.8,84,20.5,84,27.6s-3,13-11.5,13h-4.3v9.8h-8.6V14.8z M71.1,33.6c2.9,0,4.1-1.9,4.1-5.9
	s-1.2-5.9-4.1-5.9h-2.8v11.8H71.1z"/>
<path class="st0" d="M87.2,32.7c0-11.6,5.5-18.4,15.3-18.4s15.3,6.8,15.3,18.4s-5.6,18.2-15.3,18.2S87.2,44.3,87.2,32.7z
	 M108.8,32.7c0-7.4-2.4-11-6.3-11c-3.9,0-6.4,3.7-6.4,11s2.4,10.9,6.4,10.9C106.5,43.7,108.8,40,108.8,32.7z"/>
</svg>
