<svg xmlns="http://www.w3.org/2000/svg" xmlns:xlink="http://www.w3.org/1999/xlink" viewBox="0 0 153.97 30.17"><defs><style>.cls-1,.cls-5{fill:none;}.cls-2{clip-path:url(#clip-path);}.cls-3,.cls-6{fill:#fff;}.cls-4{fill:#e3000f;}.cls-5{stroke:#fff;stroke-width:0.78px;}.cls-6{fill-rule:evenodd;}</style><clipPath id="clip-path"><rect class="cls-1" width="153.97" height="30.17"/></clipPath></defs><title>FunderLogo</title><g id="Layer_2" data-name="Layer 2"><g id="Layer_1-2" data-name="Layer 1"><polygon points="137.5 8.2 139.53 30.15 153.97 8.2 137.5 8.2"/><g class="cls-2"><path class="cls-3" d="M144.55,16.06a3,3,0,1,0-3-3,3,3,0,0,0,3,3m0-5.57A2.54,2.54,0,1,1,142,13a2.51,2.51,0,0,1,2.51-2.54m.51,2.69a.85.85,0,0,0,.9-.93c0-.72-.55-.9-1.15-.9h-1.42v3.41h.49V13.18h.62l.86,1.58h.56Zm-.34-1.34c.4,0,.76,0,.76.46s-.63.39-1.08.39h-.52v-.85Z"/><rect class="cls-4" width="139.5" height="30.17"/><polygon class="cls-3" points="15.88 9.91 15.88 8.63 8.51 8.63 8.51 21.18 9.91 21.18 9.91 15.34 15.63 15.34 15.63 14.07 9.91 14.07 9.91 9.91 15.88 9.91"/><polygon class="cls-5" points="15.88 9.91 15.88 8.63 8.51 8.63 8.51 21.18 9.91 21.18 9.91 15.34 15.63 15.34 15.63 14.07 9.91 14.07 9.91 9.91 15.88 9.91"/><path class="cls-3" d="M29.31,16.06V8.63H27.92v7.46c0,2.71-.86,4-3,4s-3.21-1.35-3.21-4.05V8.63h-1.4v7.46c0,3.48,1.54,5.29,4.53,5.29s4.5-1.85,4.5-5.32"/><path class="cls-5" d="M29.31,16.06V8.63H27.92v7.46c0,2.71-.86,4-3,4s-3.21-1.35-3.21-4.05V8.63h-1.4v7.46c0,3.48,1.54,5.29,4.53,5.29S29.31,19.53,29.31,16.06Z"/><path class="cls-3" d="M43.59,21.18V8.63H42.25V19c-.16-.32-.63-1.15-.9-1.58L35.92,8.63H34.56V21.18H35.9V11c.17.32.63,1.15.9,1.58l5.49,8.58Z"/><path class="cls-5" d="M43.59,21.18V8.63H42.25V19c-.16-.32-.63-1.15-.9-1.58L35.92,8.63H34.56V21.18H35.9V11c.17.32.63,1.15.9,1.58l5.49,8.58Z"/><path class="cls-6" d="M58,14.82c0-4.3-2.42-6.19-5.72-6.19H48.93V21.18H52c3.35,0,6-1.81,6-6.36m-1.4,0c0,3.61-1.69,5-4.39,5H50.33v-10h1.81c2.89,0,4.43,1.75,4.43,5"/><path class="cls-5" d="M58,14.82c0-4.3-2.42-6.19-5.72-6.19H48.93V21.18H52C55.35,21.18,58,19.37,58,14.82Zm-1.4,0c0,3.61-1.69,5-4.39,5H50.33v-10h1.81C55,9.91,56.57,11.66,56.57,14.87Z"/><polygon class="cls-3" points="69.83 21.18 69.83 19.91 63.38 19.91 63.38 15.12 69.37 15.12 69.37 13.85 63.38 13.85 63.38 9.91 69.83 9.91 69.83 8.63 61.98 8.63 61.98 21.18 69.83 21.18"/><polygon class="cls-5" points="69.83 21.18 69.83 19.91 63.38 19.91 63.38 15.12 69.37 15.12 69.37 13.85 63.38 13.85 63.38 9.91 69.83 9.91 69.83 8.63 61.98 8.63 61.98 21.18 69.83 21.18"/><path class="cls-6" d="M83.62,12.18c0-2.42-1.71-3.55-3.91-3.55h-5V21.18h1.4V15.84h3l2.69,5.34h1.61l-2.76-5.45a3.42,3.42,0,0,0,3-3.55m-1.4.06c0,1.57-.88,2.35-2.74,2.35H76.14V9.91h3.51c1.67,0,2.57.78,2.57,2.33"/><path class="cls-5" d="M83.62,12.18c0-2.42-1.71-3.55-3.91-3.55h-5V21.18h1.4V15.84h3l2.69,5.34h1.61l-2.76-5.45A3.42,3.42,0,0,0,83.62,12.18Zm-1.4.06c0,1.57-.88,2.35-2.74,2.35H76.14V9.91h3.51C81.32,9.91,82.22,10.69,82.22,12.24Z"/><path class="cls-3" d="M101.1,21.57V8.24H97.74L96.11,11.8a37.48,37.48,0,0,0-1.68,4,36.4,36.4,0,0,0-1.67-4L91.12,8.24H87.73V21.57h3.46V18.39c0-1.32,0-2.52-.07-3.55.4,1,1.08,2.54,1.54,3.49L94.41,22l1.75-3.69c.46-.95,1.15-2.5,1.55-3.49-.06,1-.08,2.23-.08,3.55v3.18Z"/><path class="cls-6" d="M117.54,21.57,112.7,8.24H109l-4.84,13.33h4l.73-2.35h4l.73,2.35Zm-5.62-5.28h-2.21l.25-.87c.47-1.7.68-2.44.85-3.34.17.9.38,1.62.86,3.34Z"/><path class="cls-3" d="M132.58,21.57l-4.36-6.82,4.21-6.51h-4.19l-.74,1.29A26,26,0,0,0,126.2,12a23.41,23.41,0,0,0-1.28-2.44l-.74-1.29H119.9l4.2,6.59-4.36,6.74h4.19l.9-1.55a23.71,23.71,0,0,0,1.29-2.45c.33.72.8,1.62,1.28,2.45l.89,1.55Z"/></g></g></g></svg>